<svg width="400" height="38" viewBox="0 0 400 38" fill="none" xmlns="http://www.w3.org/2000/svg">
<path d="M99.3189 18.9278C99.3189 14.4072 95.7764 10.8581 91.2125 10.8581C86.6406 10.8581 83.0981 14.4072 83.0981 18.9278C83.0981 23.4564 86.6406 27.0055 91.2125 27.0055C95.7764 27.0055 99.3189 23.4564 99.3189 18.9278ZM102.035 0.58036V29.1253H99.3189V25.1266C97.5841 27.8566 94.6658 29.6151 91.0018 29.6151C85.1976 29.6151 80.3824 24.966 80.3824 18.9278C80.3824 12.8976 85.1976 8.24855 91.0018 8.24855C94.6658 8.24855 97.5841 9.99898 99.3189 12.729V0.58036H102.035Z" fill="#181819"/>
<path d="M109.355 17.6671H124.708C124.132 13.1786 120.841 10.8581 117.299 10.8581C112.978 10.8581 109.89 13.6684 109.355 17.6671ZM127.505 19.0081C127.505 19.4176 127.464 19.8672 127.424 20.2767H109.355C109.93 24.436 113.181 27.0055 117.542 27.0055C120.801 27.0055 123.062 25.4959 124.173 23.5367L126.564 24.9258C124.83 27.696 121.66 29.615 117.51 29.615C111 29.615 106.55 25.0864 106.55 18.9278C106.55 12.9377 110.919 8.24851 117.299 8.24851C123.597 8.24851 127.505 13.4275 127.505 19.0081Z" fill="#181819"/>
<path d="M145.161 23.7455C145.161 27.2062 142.113 29.615 137.711 29.615C133.601 29.615 130.796 27.5354 129.767 24.9258L132.069 23.5769C132.815 25.6565 134.955 27.0055 137.711 27.0055C140.143 27.0055 142.445 26.1463 142.445 23.7455C142.445 18.6869 130.423 21.5775 130.423 14.0779C130.423 10.818 133.35 8.24851 137.468 8.24851C140.84 8.24851 143.474 9.8785 144.674 12.4078L142.404 13.7086C141.545 11.6289 139.437 10.8581 137.468 10.8581C135.328 10.8581 133.139 11.8779 133.139 14.0779C133.139 19.1365 145.161 16.2379 145.161 23.7455Z" fill="#181819"/>
<path d="M149.481 8.73828H152.197V29.1252H149.481V8.73828ZM148.865 2.4592C148.865 1.39128 149.732 0.5 150.843 0.5C151.954 0.5 152.813 1.39128 152.813 2.4592C152.813 3.5191 151.954 4.41037 150.843 4.41037C149.732 4.41037 148.865 3.5191 148.865 2.4592Z" fill="#181819"/>
<path d="M175.657 18.9278C175.657 14.4071 172.122 10.8581 167.55 10.8581C162.978 10.8581 159.444 14.4071 159.444 18.9278C159.444 23.4564 162.978 27.0055 167.55 27.0055C172.122 27.0055 175.657 23.4564 175.657 18.9278ZM178.38 8.73831V28.3062C178.38 34.505 173.355 37.765 168.045 37.765C163.311 37.765 159.89 35.9744 158.285 32.7947L160.676 31.4458C161.706 33.5254 163.594 35.1554 168.045 35.1554C172.82 35.1554 175.657 32.4655 175.657 28.3062V25.1266C173.93 27.8566 171.012 29.615 167.34 29.615C161.535 29.615 156.728 24.966 156.728 18.9278C156.728 12.8976 161.535 8.24851 167.34 8.24851C171.012 8.24851 173.93 9.99895 175.657 12.729V8.73831H178.38Z" fill="#181819"/>
<path d="M201.832 16.6072V29.1252H199.117V16.6072C199.117 12.9779 197.098 10.8581 193.515 10.8581C189.892 10.8581 186.844 12.9779 186.844 18.438V29.1252H184.136V8.73831H186.844V11.918C188.457 9.34856 190.84 8.24851 193.766 8.24851C198.784 8.24851 201.832 11.5085 201.832 16.6072Z" fill="#181819"/>
<path d="M68.8959 25.4557C68.8959 23.1272 70.8333 21.2161 73.2166 21.2161C75.5674 21.2161 77.4967 23.1272 77.4967 25.4557C77.4967 27.8164 75.5674 29.6953 73.2166 29.6953C70.8333 29.6953 68.8959 27.8164 68.8959 25.4557Z" fill="#C026D3"/>
<path d="M22.8032 8.73828L15.1021 29.1252H7.69293L0 8.73828H7.57134L11.4056 20.4373L15.2318 8.73828H22.8032Z" fill="#C026D3"/>
<path d="M45.3954 8.73828L38.3591 28.796C36.1785 34.9948 32.2631 37.5642 25.924 37.2832V30.9158C28.8504 30.9158 30.1231 30.3056 31.031 28.4748L22.7949 8.73828H30.4554L34.614 20.5577L37.8241 8.73828H45.3954Z" fill="#C026D3"/>
<path d="M60.5788 18.9278C60.5788 16.4065 58.8116 14.6882 56.4202 14.6882C54.0775 14.6882 52.3103 16.4065 52.3103 18.9278C52.3103 21.4571 54.0775 23.1674 56.4202 23.1674C58.8116 23.1674 60.5788 21.4571 60.5788 18.9278ZM45.428 18.9278C45.428 12.8575 50.3323 8.16825 56.4202 8.16825C62.5567 8.16825 67.4124 12.8575 67.4124 18.9278C67.4124 25.0061 62.5567 29.6954 56.4202 29.6954C50.3729 29.6954 45.428 25.0061 45.428 18.9278Z" fill="#C026D3"/>
</svg>
