<svg width="211" height="94" viewBox="0 0 211 94" fill="none" xmlns="http://www.w3.org/2000/svg">
<g filter="url(#filter0_ddd_468_9684)">
<path d="M41.9999 15.0029C44.4305 5.81998 49.4999 2 58.4999 2C65.7453 2 157.893 2 193.546 2C201.277 2 207.5 8.26801 207.5 16V76C207.5 83.732 201.232 90 193.5 90H17.4999C9.7679 90 3.49988 83.7342 3.49988 76.0023C3.49988 67.655 3.49988 57.9384 3.49988 54.0029C3.49988 46.5029 7.49988 42.6581 15.4999 41.0029C29.9999 38.0029 37.4999 32.0037 41.9999 15.0029Z" fill="white"/>
<path d="M58.4999 2.5H193.546C200.999 2.50014 207 8.54212 207 16V76C207 83.4558 200.956 89.5 193.5 89.5H17.4999C10.0439 89.5 3.99988 83.4577 3.99988 76.002V54.0029C3.99988 50.3463 4.97181 47.6455 6.86218 45.6553C8.76385 43.6532 11.652 42.3093 15.6014 41.4922C22.8957 39.983 28.4978 37.7063 32.8427 33.6172C37.1865 29.5289 40.2205 23.6795 42.4833 15.1309C43.6819 10.6026 45.5129 7.46508 48.0936 5.45215C50.6732 3.44023 54.0683 2.5 58.4999 2.5Z" stroke="#E5E5E5"/>
</g>
<defs>
<filter id="filter0_ddd_468_9684" x="0.499878" y="0" width="210" height="94" filterUnits="userSpaceOnUse" color-interpolation-filters="sRGB">
<feFlood flood-opacity="0" result="BackgroundImageFix"/>
<feColorMatrix in="SourceAlpha" type="matrix" values="0 0 0 0 0 0 0 0 0 0 0 0 0 0 0 0 0 0 127 0" result="hardAlpha"/>
<feOffset dy="1"/>
<feGaussianBlur stdDeviation="1.5"/>
<feComposite in2="hardAlpha" operator="out"/>
<feColorMatrix type="matrix" values="0 0 0 0 0 0 0 0 0 0 0 0 0 0 0 0 0 0 0.1 0"/>
<feBlend mode="normal" in2="BackgroundImageFix" result="effect1_dropShadow_468_9684"/>
<feColorMatrix in="SourceAlpha" type="matrix" values="0 0 0 0 0 0 0 0 0 0 0 0 0 0 0 0 0 0 127 0" result="hardAlpha"/>
<feMorphology radius="1" operator="erode" in="SourceAlpha" result="effect2_dropShadow_468_9684"/>
<feOffset dy="1"/>
<feGaussianBlur stdDeviation="1"/>
<feComposite in2="hardAlpha" operator="out"/>
<feColorMatrix type="matrix" values="0 0 0 0 0 0 0 0 0 0 0 0 0 0 0 0 0 0 0.1 0"/>
<feBlend mode="normal" in2="effect1_dropShadow_468_9684" result="effect2_dropShadow_468_9684"/>
<feColorMatrix in="SourceAlpha" type="matrix" values="0 0 0 0 0 0 0 0 0 0 0 0 0 0 0 0 0 0 127 0" result="hardAlpha"/>
<feOffset dx="3" dy="3"/>
<feComposite in2="hardAlpha" operator="out"/>
<feColorMatrix type="matrix" values="0 0 0 0 0.752941 0 0 0 0 0.14902 0 0 0 0 0.827451 0 0 0 1 0"/>
<feBlend mode="normal" in2="effect2_dropShadow_468_9684" result="effect3_dropShadow_468_9684"/>
<feBlend mode="normal" in="SourceGraphic" in2="effect3_dropShadow_468_9684" result="shape"/>
</filter>
</defs>
</svg>
