<svg width="25" height="26" viewBox="0 0 25 26" fill="none" xmlns="http://www.w3.org/2000/svg">
<path d="M12.5002 7.59831C12.5002 6.49324 12.0612 5.43343 11.2798 4.65203C10.4984 3.87063 9.43856 3.43164 8.3335 3.43164H2.0835V19.0566H9.37516C10.204 19.0566 10.9988 19.3859 11.5849 19.9719C12.1709 20.558 12.5002 21.3528 12.5002 22.1816M12.5002 7.59831V22.1816M12.5002 7.59831C12.5002 6.49324 12.9391 5.43343 13.7206 4.65203C14.502 3.87063 15.5618 3.43164 16.6668 3.43164H22.9168V19.0566H15.6252C14.7964 19.0566 14.0015 19.3859 13.4155 19.9719C12.8294 20.558 12.5002 21.3528 12.5002 22.1816M6.25016 8.63997H8.3335M6.25016 12.8066H8.3335M16.6668 8.63997H18.7502M16.6668 12.8066H18.7502" stroke="#16A34A" stroke-width="2" stroke-linecap="round" stroke-linejoin="round"/>
</svg>
