<svg width="25" height="26" viewBox="0 0 25 26" fill="none" xmlns="http://www.w3.org/2000/svg">
<path d="M6.25315 5.64332C6.23456 5.2271 6.29939 4.81136 6.44383 4.42056C6.58826 4.02976 6.80939 3.67179 7.09419 3.3677C7.379 3.06361 7.72174 2.81954 8.10225 2.64985C8.48277 2.48016 8.89337 2.38827 9.30992 2.37958C9.72646 2.3709 10.1405 2.4456 10.5278 2.59929C10.915 2.75298 11.2677 2.98256 11.5649 3.27452C11.8621 3.56647 12.098 3.91492 12.2586 4.29936C12.4192 4.68381 12.5013 5.09648 12.5 5.51311V19.0548M6.25315 5.64332C5.64086 5.80076 5.07242 6.09546 4.59089 6.50511C4.10936 6.91475 3.72736 7.42861 3.47382 8.00775C3.22028 8.58689 3.10186 9.21613 3.12751 9.84781C3.15317 10.4795 3.32223 11.0971 3.6219 11.6537M6.25315 5.64332C6.27375 6.14721 6.4161 6.63858 6.66784 7.07556M3.6219 11.6537C3.09501 12.0818 2.68068 12.6321 2.41496 13.2568C2.14925 13.8815 2.04019 14.5616 2.09728 15.2381C2.15437 15.9146 2.37588 16.5668 2.74253 17.1381C3.10919 17.7095 3.60988 18.1825 4.20107 18.5162M3.6219 11.6537C3.81246 11.4985 4.01661 11.3615 4.23151 11.2422M4.20107 18.5162C4.12806 19.0811 4.17163 19.6549 4.32908 20.2022C4.48652 20.7495 4.7545 21.2588 5.11647 21.6985C5.47844 22.1382 5.9267 22.499 6.43359 22.7587C6.94047 23.0184 7.49521 23.1714 8.06354 23.2083C8.63188 23.2451 9.20174 23.1651 9.73793 22.9731C10.2741 22.7811 10.7653 22.4813 11.181 22.092C11.5968 21.7028 11.9283 21.2325 12.1552 20.7101C12.3821 20.1877 12.4994 19.6243 12.5 19.0548M4.20107 18.5162C4.82635 18.8689 5.53253 19.0549 6.25041 19.0546M12.5 19.0548L18.7502 19.0547C19.3027 19.0547 19.8326 19.2742 20.2233 19.6649C20.614 20.0556 20.8335 20.5855 20.8335 21.1381V22.1797M9.3752 13.8464C10.2497 13.5387 11.0134 12.9787 11.5697 12.237C12.1259 11.4954 12.4497 10.6054 12.5002 9.67973M12.5002 13.8464H16.6669M12.5002 8.63806H20.8335M16.6669 8.63806V5.51306C16.6669 4.96053 16.8864 4.43062 17.2771 4.03992C17.6678 3.64922 18.1977 3.42973 18.7502 3.42973M17.1877 13.8464C17.1877 14.134 16.9545 14.3672 16.6669 14.3672C16.3792 14.3672 16.146 14.134 16.146 13.8464C16.146 13.5587 16.3792 13.3256 16.6669 13.3256C16.9545 13.3256 17.1877 13.5587 17.1877 13.8464ZM19.271 3.42973C19.271 3.71738 19.0379 3.95056 18.7502 3.95056C18.4626 3.95056 18.2294 3.71738 18.2294 3.42973C18.2294 3.14208 18.4626 2.90889 18.7502 2.90889C19.0379 2.90889 19.271 3.14208 19.271 3.42973ZM21.3544 22.1797C21.3544 22.4674 21.1212 22.7006 20.8335 22.7006C20.5459 22.7006 20.3127 22.4674 20.3127 22.1797C20.3127 21.8921 20.5459 21.6589 20.8335 21.6589C21.1212 21.6589 21.3544 21.8921 21.3544 22.1797ZM21.3544 8.63806C21.3544 8.92571 21.1212 9.15889 20.8335 9.15889C20.5459 9.15889 20.3127 8.92571 20.3127 8.63806C20.3127 8.35041 20.5459 8.11723 20.8335 8.11723C21.1212 8.11723 21.3544 8.35041 21.3544 8.63806Z" stroke="#16A34A" stroke-width="2" stroke-linecap="round" stroke-linejoin="round"/>
</svg>
