<svg width="16" height="16" viewBox="0 0 16 16" fill="none" xmlns="http://www.w3.org/2000/svg">
<path d="M11.3333 12C11.3333 11.6464 11.1929 11.3072 10.9428 11.0572C10.6928 10.8071 10.3536 10.6667 10 10.6667H6C5.64638 10.6667 5.30724 10.8071 5.05719 11.0572C4.80714 11.3072 4.66667 11.6464 4.66667 12M5.33333 1.33333V2.66667M10.6667 1.33333V2.66667M3.33333 2.66667H12.6667C13.403 2.66667 14 3.26362 14 4V13.3333C14 14.0697 13.403 14.6667 12.6667 14.6667H3.33333C2.59695 14.6667 2 14.0697 2 13.3333V4C2 3.26362 2.59695 2.66667 3.33333 2.66667ZM9.33333 6.66667C9.33333 7.40305 8.73638 8 8 8C7.26362 8 6.66667 7.40305 6.66667 6.66667C6.66667 5.93029 7.26362 5.33333 8 5.33333C8.73638 5.33333 9.33333 5.93029 9.33333 6.66667Z" stroke="#FAFAFA" stroke-width="1.33" stroke-linecap="round" stroke-linejoin="round"/>
</svg>
