<svg width="25" height="25" viewBox="0 0 25 25" fill="none" xmlns="http://www.w3.org/2000/svg">
<path d="M7.29183 21.875H17.7085M12.5002 3.125V21.875M3.12516 7.29167H5.2085C7.29183 7.29167 10.4168 6.25 12.5002 5.20833C14.5835 6.25 17.7085 7.29167 19.7918 7.29167H21.8752M16.6668 16.6667L19.7918 8.33333L22.9168 16.6667C22.0106 17.3437 20.9168 17.7083 19.7918 17.7083C18.6668 17.7083 17.5731 17.3437 16.6668 16.6667ZM2.0835 16.6667L5.2085 8.33333L8.3335 16.6667C7.42725 17.3437 6.3335 17.7083 5.2085 17.7083C4.0835 17.7083 2.98975 17.3437 2.0835 16.6667Z" stroke="#16A34A" stroke-width="2" stroke-linecap="round" stroke-linejoin="round"/>
</svg>
