<svg width="23" height="21" viewBox="0 0 23 21" fill="none" xmlns="http://www.w3.org/2000/svg">
<path d="M10.375 15.5838L12.4583 17.6672C12.6635 17.8724 12.9071 18.0351 13.1752 18.1462C13.4433 18.2572 13.7306 18.3144 14.0208 18.3144C14.311 18.3144 14.5984 18.2572 14.8665 18.1462C15.1345 18.0351 15.3781 17.8724 15.5833 17.6672C15.7885 17.462 15.9513 17.2184 16.0623 16.9503C16.1734 16.6822 16.2305 16.3949 16.2305 16.1047C16.2305 15.8145 16.1734 15.5271 16.0623 15.2591C15.9513 14.991 15.7885 14.7474 15.5833 14.5422M13.5002 12.4589L16.1044 15.063C16.5188 15.4774 17.0809 15.7102 17.6669 15.7102C18.253 15.7102 18.815 15.4774 19.2294 15.063C19.6438 14.6486 19.8766 14.0866 19.8766 13.5005C19.8766 12.9145 19.6438 12.3524 19.2294 11.938L15.1877 7.89636C14.6018 7.31115 13.8075 6.98244 12.9794 6.98244C12.1513 6.98244 11.357 7.31115 10.7711 7.89636L9.8544 8.81302C9.44 9.22742 8.87795 9.46023 8.2919 9.46023C7.70585 9.46023 7.1438 9.22742 6.7294 8.81302C6.315 8.39862 6.08219 7.83658 6.08219 7.25052C6.08219 6.66447 6.315 6.10243 6.7294 5.68802L9.65649 2.76094C10.6067 1.81317 11.846 1.20943 13.178 1.04529C14.51 0.881143 15.8587 1.16597 17.0107 1.85469L17.5002 2.14636C17.9438 2.41405 18.4711 2.5069 18.9794 2.40677L20.7919 2.04219M20.7917 1.00051L21.8333 12.4588H19.75M2.04167 1.00051L1 12.4588L7.77083 19.2297C8.18523 19.6441 8.74728 19.8769 9.33333 19.8769C9.91938 19.8769 10.4814 19.6441 10.8958 19.2297C11.3102 18.8153 11.543 18.2532 11.543 17.6672C11.543 17.0811 11.3102 16.5191 10.8958 16.1047M2.04167 2.04218H10.375" stroke="#DC2626" stroke-width="2" stroke-linecap="round" stroke-linejoin="round"/>
</svg>
