<svg width="25" height="25" viewBox="0 0 25 25" fill="none" xmlns="http://www.w3.org/2000/svg">
<path d="M20.8332 3.125H4.16654C3.59125 3.125 3.12488 3.59137 3.12488 4.16667V9.375C3.12488 9.9503 3.59125 10.4167 4.16654 10.4167H20.8332C21.4085 10.4167 21.8749 9.9503 21.8749 9.375V4.16667C21.8749 3.59137 21.4085 3.125 20.8332 3.125Z" stroke="#C026D3" stroke-width="2" stroke-linecap="round" stroke-linejoin="round"/>
<path d="M9.37488 14.5833H4.16654C3.59125 14.5833 3.12488 15.0497 3.12488 15.625V20.8333C3.12488 21.4086 3.59125 21.875 4.16654 21.875H9.37488C9.95017 21.875 10.4165 21.4086 10.4165 20.8333V15.625C10.4165 15.0497 9.95017 14.5833 9.37488 14.5833Z" stroke="#C026D3" stroke-width="2" stroke-linecap="round" stroke-linejoin="round"/>
<path d="M20.8332 14.5833H15.6249C15.0496 14.5833 14.5832 15.0497 14.5832 15.625V20.8333C14.5832 21.4086 15.0496 21.875 15.6249 21.875H20.8332C21.4085 21.875 21.8749 21.4086 21.8749 20.8333V15.625C21.8749 15.0497 21.4085 14.5833 20.8332 14.5833Z" stroke="#C026D3" stroke-width="2" stroke-linecap="round" stroke-linejoin="round"/>
</svg>
