<svg width="272" height="37" viewBox="0 0 272 37" fill="none" xmlns="http://www.w3.org/2000/svg">
<path d="M271.667 3.30469C271.667 4.77745 270.473 5.97135 269 5.97135C267.527 5.97135 266.333 4.77745 266.333 3.30469C266.333 1.83193 267.527 0.638021 269 0.638021C270.473 0.638021 271.667 1.83193 271.667 3.30469ZM5.66666 34.3047C5.66666 35.7774 4.47275 36.9714 3 36.9714C1.52725 36.9714 0.333344 35.7774 0.333344 34.3047C0.333344 32.8319 1.52725 31.638 3 31.638C4.47275 31.638 5.66666 32.8319 5.66666 34.3047ZM269 3.30469V3.80469H9V3.30469V2.80469H269V3.30469ZM3 9.30469H3.5V34.3047H3H2.5V9.30469H3ZM9 3.30469V3.80469C5.96243 3.80469 3.5 6.26712 3.5 9.30469H3H2.5C2.5 5.71484 5.41016 2.80469 9 2.80469V3.30469Z" fill="#22C55E"/>
</svg>
