<svg width="25" height="26" viewBox="0 0 25 26" fill="none" xmlns="http://www.w3.org/2000/svg">
<path d="M18.7502 9.67961H20.8335C21.386 9.67961 21.9159 9.8991 22.3066 10.2898C22.6973 10.6805 22.9168 11.2104 22.9168 11.7629V23.2213L18.7502 19.0546H12.5002C11.9476 19.0546 11.4177 18.8351 11.027 18.4444C10.6363 18.0537 10.4168 17.5238 10.4168 16.9713V15.9296M14.5835 9.67961C14.5835 10.2321 14.364 10.762 13.9733 11.1527C13.5826 11.5434 13.0527 11.7629 12.5002 11.7629H6.25016L2.0835 15.9296V4.47127C2.0835 3.32544 3.021 2.38794 4.16683 2.38794H12.5002C13.0527 2.38794 13.5826 2.60743 13.9733 2.99813C14.364 3.38883 14.5835 3.91874 14.5835 4.47127V9.67961Z" stroke="#16A34A" stroke-width="2" stroke-linecap="round" stroke-linejoin="round"/>
</svg>
