<svg width="25" height="25" viewBox="0 0 25 25" fill="none" xmlns="http://www.w3.org/2000/svg">
<path d="M14.0624 7.29165C14.3501 7.29165 14.5833 7.05846 14.5833 6.77081C14.5833 6.48316 14.3501 6.24998 14.0624 6.24998C13.7748 6.24998 13.5416 6.48316 13.5416 6.77081C13.5416 7.05846 13.7748 7.29165 14.0624 7.29165Z" fill="#0A0A0A"/>
<path d="M18.2291 11.4583C18.5167 11.4583 18.7499 11.2251 18.7499 10.9375C18.7499 10.6498 18.5167 10.4166 18.2291 10.4166C17.9414 10.4166 17.7083 10.6498 17.7083 10.9375C17.7083 11.2251 17.9414 11.4583 18.2291 11.4583Z" fill="#0A0A0A"/>
<path d="M8.85408 8.33331C9.14173 8.33331 9.37492 8.10013 9.37492 7.81248C9.37492 7.52483 9.14173 7.29165 8.85408 7.29165C8.56644 7.29165 8.33325 7.52483 8.33325 7.81248C8.33325 8.10013 8.56644 8.33331 8.85408 8.33331Z" fill="#0A0A0A"/>
<path d="M6.77075 13.5416C7.0584 13.5416 7.29158 13.3085 7.29158 13.0208C7.29158 12.7332 7.0584 12.5 6.77075 12.5C6.4831 12.5 6.24992 12.7332 6.24992 13.0208C6.24992 13.3085 6.4831 13.5416 6.77075 13.5416Z" fill="#0A0A0A"/>
<path d="M14.0624 7.29165C14.3501 7.29165 14.5833 7.05846 14.5833 6.77081C14.5833 6.48316 14.3501 6.24998 14.0624 6.24998C13.7748 6.24998 13.5416 6.48316 13.5416 6.77081C13.5416 7.05846 13.7748 7.29165 14.0624 7.29165Z" stroke="#C026D3" stroke-width="2" stroke-linecap="round" stroke-linejoin="round"/>
<path d="M18.2291 11.4583C18.5167 11.4583 18.7499 11.2251 18.7499 10.9375C18.7499 10.6498 18.5167 10.4166 18.2291 10.4166C17.9414 10.4166 17.7083 10.6498 17.7083 10.9375C17.7083 11.2251 17.9414 11.4583 18.2291 11.4583Z" stroke="#C026D3" stroke-width="2" stroke-linecap="round" stroke-linejoin="round"/>
<path d="M8.85408 8.33331C9.14173 8.33331 9.37492 8.10013 9.37492 7.81248C9.37492 7.52483 9.14173 7.29165 8.85408 7.29165C8.56644 7.29165 8.33325 7.52483 8.33325 7.81248C8.33325 8.10013 8.56644 8.33331 8.85408 8.33331Z" stroke="#C026D3" stroke-width="2" stroke-linecap="round" stroke-linejoin="round"/>
<path d="M6.77075 13.5416C7.0584 13.5416 7.29158 13.3085 7.29158 13.0208C7.29158 12.7332 7.0584 12.5 6.77075 12.5C6.4831 12.5 6.24992 12.7332 6.24992 13.0208C6.24992 13.3085 6.4831 13.5416 6.77075 13.5416Z" stroke="#C026D3" stroke-width="2" stroke-linecap="round" stroke-linejoin="round"/>
<path d="M12.4999 2.08331C6.77075 2.08331 2.08325 6.77081 2.08325 12.5C2.08325 18.2291 6.77075 22.9166 12.4999 22.9166C13.4645 22.9166 14.2166 22.1396 14.2166 21.1583C14.2166 20.7031 14.0291 20.2885 13.7614 19.9864C13.4593 19.6854 13.3051 19.3073 13.3051 18.8146C13.3012 18.5853 13.3434 18.3576 13.4293 18.145C13.5153 17.9324 13.6431 17.7393 13.8052 17.5772C13.9674 17.415 14.1605 17.2872 14.3731 17.2013C14.5857 17.1154 14.8134 17.0731 15.0426 17.0771H17.1218C20.2999 17.0771 22.9083 14.4698 22.9083 11.2916C22.8801 6.26248 18.1885 2.08331 12.4999 2.08331Z" stroke="#C026D3" stroke-width="2" stroke-linecap="round" stroke-linejoin="round"/>
</svg>
