<svg width="25" height="25" viewBox="0 0 25 25" fill="none" xmlns="http://www.w3.org/2000/svg">
<path d="M13.5412 7.29171L9.06205 2.81254C8.59161 2.34437 7.95492 2.08154 7.29122 2.08154C6.62752 2.08154 5.99082 2.34437 5.52038 2.81254L2.81205 5.52087C2.34388 5.99131 2.08105 6.62801 2.08105 7.29171C2.08105 7.9554 2.34388 8.5921 2.81205 9.06254L7.29122 13.5417M8.33309 6.24999L10.4164 4.16666M18.7498 16.6667L20.8331 14.5833M17.7081 11.4583L22.1873 15.9375C23.1664 16.9167 23.1664 18.5 22.1873 19.4792L19.4789 22.1875C18.4998 23.1667 16.9164 23.1667 15.9373 22.1875L11.4581 17.7083M15.6248 5.20832L19.7914 9.37499M22.0559 7.09571C22.6067 6.54511 22.9161 5.79828 22.9162 5.01952C22.9163 4.24075 22.6071 3.49385 22.0565 2.94311C21.5059 2.39237 20.759 2.08291 19.9803 2.08281C19.2015 2.08272 18.4546 2.39199 17.9039 2.94259L4.00177 16.8478C3.75992 17.0889 3.58106 17.3858 3.48094 17.7124L2.1049 22.2457C2.07797 22.3358 2.07594 22.4315 2.09901 22.5226C2.12208 22.6138 2.1694 22.697 2.23593 22.7634C2.30247 22.8299 2.38575 22.877 2.47694 22.9C2.56812 22.9229 2.66381 22.9207 2.75385 22.8936L7.28823 21.5186C7.61445 21.4194 7.91133 21.2416 8.15281 21.0009L22.0559 7.09571Z" stroke="#C026D3" stroke-width="2" stroke-linecap="round" stroke-linejoin="round"/>
</svg>
