<svg width="25" height="26" viewBox="0 0 25 26" fill="none" xmlns="http://www.w3.org/2000/svg">
<path d="M13.5412 7.59639L9.06205 3.11723C8.59161 2.64906 7.95492 2.38623 7.29122 2.38623C6.62752 2.38623 5.99082 2.64906 5.52038 3.11723L2.81205 5.82556C2.34388 6.296 2.08105 6.93269 2.08105 7.59639C2.08105 8.26009 2.34388 8.89679 2.81205 9.36723L7.29122 13.8464M8.33309 6.55468L10.4164 4.47134M18.7498 16.9713L20.8331 14.888M17.7081 11.763L22.1873 16.2422C23.1664 17.2213 23.1664 18.8047 22.1873 19.7838L19.4789 22.4922C18.4998 23.4713 16.9164 23.4713 15.9373 22.4922L11.4581 18.013M15.6248 5.51301L19.7914 9.67968M22.0559 7.4004C22.6067 6.8498 22.9161 6.10297 22.9162 5.3242C22.9163 4.54544 22.6071 3.79853 22.0565 3.24779C21.5059 2.69706 20.759 2.3876 19.9803 2.3875C19.2015 2.3874 18.4546 2.69667 17.9039 3.24727L4.00177 17.1525C3.75992 17.3936 3.58106 17.6905 3.48094 18.0171L2.1049 22.5504C2.07797 22.6405 2.07594 22.7362 2.09901 22.8273C2.12208 22.9185 2.1694 23.0017 2.23593 23.0681C2.30247 23.1345 2.38575 23.1817 2.47694 23.2046C2.56812 23.2276 2.66381 23.2254 2.75385 23.1983L7.28823 21.8233C7.61445 21.7241 7.91133 21.5463 8.15281 21.3056L22.0559 7.4004Z" stroke="#16A34A" stroke-width="2" stroke-linecap="round" stroke-linejoin="round"/>
</svg>
