<svg width="272" height="48" viewBox="0 0 272 48" fill="none" xmlns="http://www.w3.org/2000/svg">
<path d="M0.333333 3.30664C0.333333 4.7794 1.52724 5.97331 3 5.97331C4.47276 5.97331 5.66667 4.7794 5.66667 3.30664C5.66667 1.83388 4.47276 0.639974 3 0.639974C1.52724 0.639974 0.333333 1.83388 0.333333 3.30664ZM266.333 45.3066C266.333 46.7794 267.527 47.9733 269 47.9733C270.473 47.9733 271.667 46.7794 271.667 45.3066C271.667 43.8339 270.473 42.64 269 42.64C267.527 42.64 266.333 43.8339 266.333 45.3066ZM3 3.30664V3.80664H263V3.30664V2.80664H3V3.30664ZM269 9.30664H268.5V45.3066H269H269.5V9.30664H269ZM263 3.30664V3.80664C266.038 3.80664 268.5 6.26907 268.5 9.30664H269H269.5C269.5 5.71679 266.59 2.80664 263 2.80664V3.30664Z" fill="#22C55E"/>
</svg>
