<svg width="25" height="26" viewBox="0 0 25 26" fill="none" xmlns="http://www.w3.org/2000/svg">
<path d="M12.7289 2.38989H12.2706C11.7181 2.38989 11.1882 2.60939 10.7975 3.00009C10.4068 3.39079 10.1873 3.92069 10.1873 4.47323V4.66073C10.1869 5.02606 10.0904 5.38488 9.90761 5.70118C9.72478 6.01748 9.46198 6.28014 9.14559 6.46281L8.69767 6.72323C8.38097 6.90608 8.02171 7.00234 7.65601 7.00234C7.29031 7.00234 6.93105 6.90608 6.61434 6.72323L6.45809 6.63989C5.98003 6.36412 5.41209 6.28931 4.87893 6.43188C4.34576 6.57445 3.89096 6.92274 3.61434 7.40031L3.38517 7.79614C3.10941 8.2742 3.03459 8.84215 3.17716 9.37531C3.31973 9.90847 3.66802 10.3633 4.14559 10.6399L4.30184 10.7441C4.61671 10.9258 4.87853 11.1869 5.06127 11.5012C5.24401 11.8155 5.34131 12.1722 5.34351 12.5357V13.067C5.34497 13.4341 5.24939 13.7951 5.06647 14.1133C4.88355 14.4316 4.61977 14.6959 4.30184 14.8795L4.14559 14.9732C3.66802 15.2498 3.31973 15.7046 3.17716 16.2378C3.03459 16.771 3.10941 17.3389 3.38517 17.817L3.61434 18.2128C3.89096 18.6904 4.34576 19.0387 4.87893 19.1812C5.41209 19.3238 5.98003 19.249 6.45809 18.9732L6.61434 18.8899C6.93105 18.707 7.29031 18.6108 7.65601 18.6108C8.02171 18.6108 8.38097 18.707 8.69767 18.8899L9.14559 19.1503C9.46198 19.333 9.72478 19.5956 9.90761 19.9119C10.0904 20.2282 10.1869 20.5871 10.1873 20.9524V21.1399C10.1873 21.6924 10.4068 22.2223 10.7975 22.613C11.1882 23.0037 11.7181 23.2232 12.2706 23.2232H12.7289C13.2815 23.2232 13.8114 23.0037 14.2021 22.613C14.5928 22.2223 14.8123 21.6924 14.8123 21.1399V20.9524C14.8126 20.5871 14.9091 20.2282 15.0919 19.9119C15.2747 19.5956 15.5375 19.333 15.8539 19.1503L16.3018 18.8899C16.6185 18.707 16.9778 18.6108 17.3435 18.6108C17.7092 18.6108 18.0685 18.707 18.3852 18.8899L18.5414 18.9732C19.0195 19.249 19.5874 19.3238 20.1206 19.1812C20.6538 19.0387 21.1086 18.6904 21.3852 18.2128L21.6143 17.8066C21.8901 17.3285 21.9649 16.7606 21.8224 16.2274C21.6798 15.6942 21.3315 15.2394 20.8539 14.9628L20.6977 14.8795C20.3797 14.6959 20.116 14.4316 19.933 14.1133C19.7501 13.7951 19.6546 13.4341 19.656 13.067V12.5461C19.6546 12.179 19.7501 11.8181 19.933 11.4998C20.116 11.1815 20.3797 10.9172 20.6977 10.7336L20.8539 10.6399C21.3315 10.3633 21.6798 9.90847 21.8224 9.37531C21.9649 8.84215 21.8901 8.2742 21.6143 7.79614L21.3852 7.40031C21.1086 6.92274 20.6538 6.57445 20.1206 6.43188C19.5874 6.28931 19.0195 6.36412 18.5414 6.63989L18.3852 6.72323C18.0685 6.90608 17.7092 7.00234 17.3435 7.00234C16.9778 7.00234 16.6185 6.90608 16.3018 6.72323L15.8539 6.46281C15.5375 6.28014 15.2747 6.01748 15.0919 5.70118C14.9091 5.38488 14.8126 5.02606 14.8123 4.66073V4.47323C14.8123 3.92069 14.5928 3.39079 14.2021 3.00009C13.8114 2.60939 13.2815 2.38989 12.7289 2.38989Z" stroke="#16A34A" stroke-width="2" stroke-linecap="round" stroke-linejoin="round"/>
<path d="M12.4998 15.9316C14.2256 15.9316 15.6248 14.5324 15.6248 12.8066C15.6248 11.0807 14.2256 9.68156 12.4998 9.68156C10.7739 9.68156 9.37476 11.0807 9.37476 12.8066C9.37476 14.5324 10.7739 15.9316 12.4998 15.9316Z" stroke="#16A34A" stroke-width="2" stroke-linecap="round" stroke-linejoin="round"/>
</svg>
