<svg width="25" height="25" viewBox="0 0 25 25" fill="none" xmlns="http://www.w3.org/2000/svg">
<path d="M9.16683 20.8334V16.5625L11.146 16.7709C11.7222 16.7388 12.2674 16.4999 12.6816 16.0981C13.0957 15.6962 13.3509 15.1583 13.4002 14.5834V8.64586C13.4071 7.14518 12.8175 5.70321 11.7613 4.63719C10.705 3.57116 9.26855 2.96839 7.76787 2.96149C6.26719 2.95458 4.82522 3.5441 3.7592 4.60036C2.69317 5.65662 2.0904 7.09309 2.0835 8.59378C2.0835 11.5104 2.76683 11.775 3.12516 13.3334C3.36733 14.2745 3.3777 15.2603 3.15537 16.2063L2.0835 20.8334M20.6252 18.5416C22.0896 17.0771 22.9125 15.091 22.9131 13.0199C22.9137 10.9488 22.0919 8.96224 20.6283 7.49685M17.7086 15.6248C18.0494 15.2841 18.3193 14.8792 18.5026 14.4335C18.6859 13.9878 18.7791 13.5102 18.7767 13.0283C18.7742 12.5464 18.6763 12.0697 18.4885 11.6259C18.3007 11.182 18.0268 10.7798 17.6826 10.4426" stroke="#16A34A" stroke-width="2" stroke-linecap="round" stroke-linejoin="round"/>
</svg>
