<svg width="25" height="25" viewBox="0 0 25 25" fill="none" xmlns="http://www.w3.org/2000/svg">
<rect width="25" height="25" fill="white"/>
<path d="M18.7499 21.875C18.7499 19.6649 17.8719 17.5452 16.3091 15.9824C14.7463 14.4196 12.6267 13.5417 10.4166 13.5417M10.4166 13.5417C8.20645 13.5417 6.08683 14.4196 4.52403 15.9824C2.96123 17.5452 2.08325 19.6649 2.08325 21.875M10.4166 13.5417C13.2931 13.5417 15.6249 11.2098 15.6249 8.33333C15.6249 5.45685 13.2931 3.125 10.4166 3.125C7.5401 3.125 5.20825 5.45685 5.20825 8.33333C5.20825 11.2098 7.5401 13.5417 10.4166 13.5417ZM22.9166 20.8333C22.9166 17.3229 20.8333 14.0624 18.75 12.4999C19.4348 11.9862 19.9824 11.3115 20.3443 10.5356C20.7062 9.75979 20.8713 8.90669 20.825 8.05182C20.7786 7.19696 20.5223 6.36671 20.0786 5.63453C19.6349 4.90236 19.0176 4.29085 18.2812 3.85412" stroke="#DC2626" stroke-width="2" stroke-linecap="round" stroke-linejoin="round"/>
</svg>
