<svg width="300" height="43" viewBox="0 0 300 43" fill="none" xmlns="http://www.w3.org/2000/svg">
<path d="M25.1418 10.4377L16.6568 33.126H8.49091L0 10.4377H8.35501L12.5739 23.4599L16.7927 10.4377H25.1418Z" fill="#16A34A"/>
<path d="M50.0535 10.4377L42.2953 32.7597C39.8904 39.6548 35.577 42.5144 28.5928 42.1954V35.1171C31.8131 35.1171 33.2194 34.4376 34.218 32.3992L25.1421 10.4377H33.5798L38.165 23.5957L41.7044 10.4377H50.0535Z" fill="#16A34A"/>
<path d="M66.7983 21.7793C66.7983 18.961 64.8484 17.0585 62.2131 17.0585C59.631 17.0585 57.6811 18.961 57.6811 21.7793C57.6811 24.5917 59.631 26.4942 62.2131 26.4942C64.8484 26.4942 66.7983 24.5917 66.7983 21.7793ZM50.1001 21.7793C50.1001 15.0142 55.5007 9.79712 62.2131 9.79712C68.9786 9.79712 74.332 15.0142 74.332 21.7793C74.332 28.5386 68.9786 33.7557 62.2131 33.7557C55.548 33.7557 50.1001 28.5386 50.1001 21.7793Z" fill="#16A34A"/>
<path d="M77.2803 21.7879C77.2803 15.07 82.3618 9.89429 89.216 9.89429C93.7067 9.89429 97.5178 12.2576 99.1546 15.8381L96.7024 17.2502C95.4793 14.5678 92.6195 12.8012 89.216 12.8012C84.1817 12.8012 80.276 16.748 80.276 21.7879C80.276 26.8218 84.1817 30.7687 89.216 30.7687C92.6667 30.7687 95.432 28.9548 96.8856 26.3255L99.3791 27.7731C97.5178 31.3595 93.6594 33.6697 89.216 33.6697C82.3618 33.6697 77.2803 28.4998 77.2803 21.7879Z" fill="black"/>
<path d="M122.98 21.7879C122.98 16.748 119.074 12.8012 114.04 12.8012C109 12.8012 105.1 16.748 105.1 21.7879C105.1 26.8218 109 30.7687 114.04 30.7687C119.074 30.7687 122.98 26.8218 122.98 21.7879ZM102.104 21.7879C102.104 15.07 107.416 9.89429 114.04 9.89429C120.664 9.89429 125.976 15.07 125.976 21.7879C125.976 28.4998 120.664 33.6697 114.04 33.6697C107.416 33.6697 102.104 28.4998 102.104 21.7879Z" fill="black"/>
<path d="M150.48 19.2V33.1261H147.484V19.2C147.484 15.1587 145.263 12.8012 141.316 12.8012C137.321 12.8012 133.965 15.1587 133.965 21.2384V33.1261H130.969V10.4438H133.965V13.9829C135.732 11.1232 138.361 9.89429 141.587 9.89429C147.124 9.89429 150.48 13.528 150.48 19.2Z" fill="black"/>
<path d="M171.899 27.1389C171.899 30.9912 168.537 33.6736 163.686 33.6736C159.148 33.6736 156.057 31.3575 154.923 28.4506L157.47 26.9557C158.285 29.2718 160.643 30.7666 163.686 30.7666C166.362 30.7666 168.903 29.8154 168.903 27.1389C168.903 21.5082 155.656 24.7342 155.656 16.3856C155.656 12.7519 158.876 9.89819 163.414 9.89819C167.13 9.89819 170.037 11.7062 171.355 14.5245L168.856 15.9779C167.904 13.6618 165.588 12.7992 163.414 12.7992C161.05 12.7992 158.645 13.9336 158.645 16.3856C158.645 22.0104 171.899 18.7903 171.899 27.1389Z" fill="black"/>
<path d="M195.628 10.4377V33.126H192.638V29.5869C190.865 32.4406 188.236 33.6637 185.01 33.6637C179.473 33.6637 176.117 30.0359 176.117 24.3638V10.4377H179.113V24.3638C179.113 28.4052 181.335 30.7626 185.282 30.7626C189.276 30.7626 192.638 28.4052 192.638 22.3254V10.4377H195.628Z" fill="black"/>
<path d="M201.986 33.1225H204.982V0H201.986V33.1225Z" fill="black"/>
<path d="M216.822 13.3478V27.0967C216.822 30.9962 218.955 30.683 223.357 30.4999V33.135C217.23 34.039 213.826 32.5383 213.826 27.0967V13.3478H209.064V10.4468H213.826V4.99925L216.822 4.08936V10.4468H223.357V13.3478H216.822Z" fill="black"/>
<path d="M228.351 10.4467H231.347V33.1349H228.351V10.4467ZM227.672 3.45705C227.672 2.27537 228.623 1.27686 229.846 1.27686C231.075 1.27686 232.027 2.27537 232.027 3.45705C232.027 4.63873 231.075 5.63134 229.846 5.63134C228.623 5.63134 227.672 4.63873 227.672 3.45705Z" fill="black"/>
<path d="M257.21 19.2V33.1261H254.214V19.2C254.214 15.1587 251.992 12.8012 248.045 12.8012C244.051 12.8012 240.694 15.1587 240.694 21.2384V33.1261H237.699V10.4438H240.694V13.9829C242.461 11.1232 245.097 9.89429 248.317 9.89429C253.853 9.89429 257.21 13.528 257.21 19.2Z" fill="black"/>
<path d="M282.534 21.7879C282.534 16.748 278.628 12.8012 273.594 12.8012C268.554 12.8012 264.654 16.748 264.654 21.7879C264.654 26.8218 268.554 30.7687 273.594 30.7687C278.628 30.7687 282.534 26.8218 282.534 21.7879ZM285.524 10.4438V32.2221C285.524 39.1172 279.993 42.745 274.138 42.745C268.92 42.745 265.15 40.7538 263.384 37.2088L266.013 35.714C267.147 38.0301 269.233 39.8439 274.138 39.8439C279.402 39.8439 282.534 36.8484 282.534 32.2221V28.683C280.625 31.7199 277.405 33.6697 273.363 33.6697C266.964 33.6697 261.658 28.4998 261.658 21.7879C261.658 15.07 266.964 9.89429 273.363 9.89429C277.405 9.89429 280.625 11.85 282.534 14.8869V10.4438H285.524Z" fill="black"/>
<path d="M290.517 29.0372C290.517 26.4552 292.65 24.3223 295.279 24.3223C297.867 24.3223 300 26.4552 300 29.0372C300 31.6723 297.867 33.758 295.279 33.758C292.65 33.758 290.517 31.6723 290.517 29.0372Z" fill="#16A34A"/>
</svg>
